<svg width="51" height="50" viewBox="0 0 51 50" fill="none" xmlns="http://www.w3.org/2000/svg">
<path d="M41.2859 25.0377C41.2859 30.3437 38.8053 32.8273 35.6857 32.8273C33.8816 32.8273 32.3031 31.8865 31.401 30.4566C29.9728 31.8865 28.056 32.7896 25.8761 32.7896C21.5914 32.7896 18.1336 29.3276 18.1336 25.0377C18.1336 20.7478 21.5914 17.2858 25.8761 17.2858C30.1607 17.2858 33.6186 20.7478 33.6186 25.0377V27.559C33.6186 28.8384 34.5206 29.7416 35.6857 29.7416C37.0764 29.7416 38.2039 28.575 38.2039 25.0377C38.2039 18.2266 32.6789 12.6949 25.8761 12.6949C19.0732 12.6949 13.5107 18.2266 13.5107 25.0377C13.5107 31.8489 19.0356 37.3806 25.8385 37.3806C29.7849 37.3806 32.491 35.4238 32.491 35.4238L34.5206 37.7569C34.5206 37.7569 31.0628 40.4287 25.8385 40.4287C17.3443 40.4287 10.4287 33.5046 10.4287 25.0001C10.4287 16.4956 17.3443 9.57153 25.8385 9.57153C34.3702 9.60916 41.2859 16.5332 41.2859 25.0377ZM25.8761 29.7416C28.4694 29.7416 30.5742 27.6343 30.5742 25.0377C30.5742 22.4412 28.4694 20.3339 25.8761 20.3339C23.2827 20.3339 21.178 22.4412 21.178 25.0377C21.178 27.6343 23.2827 29.7416 25.8761 29.7416Z" fill="white"/>
</svg>
