<svg width="32" height="32" viewBox="0 0 32 32" fill="none" xmlns="http://www.w3.org/2000/svg">
<g clip-path="url(#clip0)">
<path d="M-8.03223 0H40.0958V32.0853H-8.03223V0Z" fill="#012169"/>
<path d="M-8.03223 0V3.58453L34.7143 32.0853H40.0958V28.5008L-2.65073 0H-8.03223ZM40.0958 0V3.58453L-2.65073 32.0853H-8.03223V28.5008L34.7143 0H40.0958Z" fill="white"/>
<path d="M12.0227 0V32.0853H20.0409V0H12.0227ZM-8.03223 10.6972V21.3881H40.0958V10.6972H-8.03223Z" fill="white"/>
<path d="M-8.03223 12.8341V19.2512H40.0958V12.8341H-8.03223ZM13.6254 0V32.0853H18.4382V0H13.6254ZM-8.03223 32.0853L8.00887 21.3881H11.5997L-4.44613 32.0853H-8.03223ZM-8.03223 0L8.00887 10.6972H4.42277L-8.03223 2.39387V0ZM20.4686 10.6972L36.5097 0H40.0958L24.0547 10.6972H20.4686ZM40.0958 32.0853L24.0547 21.3881H27.6408L40.0958 29.6915V32.0853Z" fill="#C8102E"/>
</g>
<defs>
<clipPath id="clip0">
<rect width="32" height="32" rx="16" fill="white"/>
</clipPath>
</defs>
</svg>
